PathFileType	4	(X/Y/Z)	C:\Users\WrightLab\Desktop\Jo\P3_36.trc
DataRate	CameraRate	NumFrames	NumMarkers	Units	OrigDataRate	OrigDataStartFrame	OrigNumFrames
100.00	100.00	       11	19	mm	100.00	366	       584
Frame#	Time	Headset_Front			Headset_Back			Headset_Left			Headset_Right			Left_Shoulder			Right_Shoulder			Sternum			C7			Left Elbow			Right Elbow			Left Wrist			Right Wrist			Left ASIS			Right ASIS			S2			Left Knee			Right Knee			Left Ankle			Right Ankle			
		X1	Y1	Z1	X2	Y2	Z2	X3	Y3	Z3	X4	Y4	Z4	X5	Y5	Z5	X6	Y6	Z6	X7	Y7	Z7	X8	Y8	Z8	X9	Y9	Z9	X10	Y10	Z10	X11	Y11	Z11	X12	Y12	Z12	X13	Y13	Z13	X14	Y14	Z14	X15	Y15	Z15	X16	Y16	Z16	X17	Y17	Z17	X18	Y18	Z18	X19	Y19	Z19	

366	3.650	-544.02704	1405.81201	-614.60358	-599.55450	1586.44507	-378.40616	-683.24493	1514.63660	-500.80740	-461.87231	1461.50879	-500.27496	-790.15991	1301.22388	-363.16159	-428.93262	1298.60413	-363.63147	-618.87134	1177.47058	-489.43347	-605.90057	1356.18579	-319.47208	-894.45569	979.53906	-368.25500	-387.10474	954.56354	-291.08151	-899.48114	818.55573	-497.79492	-346.97107	757.08105	-395.99841	-724.74554	816.03772	-431.19501	-472.44418	826.56519	-459.44327	-579.17969	904.92578	-237.75237	-710.71753	421.89304	-247.90814	-496.87381	425.51337	-540.10736	-679.54279	125.84243	-96.74654	-521.52814	102.16379	-621.92657	
367	3.660	-543.14423	1405.91101	-624.40289	-599.42975	1585.11340	-386.90714	-682.70367	1514.02539	-509.99667	-461.23157	1460.36353	-508.02045	-789.77368	1299.71826	-372.95355	-428.15009	1296.74158	-372.78888	-617.90417	1175.73584	-500.02435	-606.03906	1355.14978	-330.25024	-892.70740	977.04517	-378.39792	-385.20157	952.83575	-299.90540	-896.94617	817.24390	-508.13818	-345.83823	754.83112	-403.68430	-724.52997	813.84766	-441.24374	-472.23831	825.44855	-468.60928	-580.46674	903.39026	-247.18605	-711.01172	420.75760	-256.99979	-496.74594	423.97269	-550.33148	-680.34412	126.81677	-98.17947	-519.79272	95.67911	-623.78351	
368	3.670	-542.38708	1405.82349	-634.09430	-598.96362	1582.99170	-395.02786	-682.09155	1513.54956	-519.25000	-462.08426	1459.07983	-517.33704	-789.04291	1298.23669	-384.26016	-426.95575	1295.29553	-382.28732	-616.63147	1174.44641	-510.19153	-604.37122	1352.97546	-339.14642	-891.73840	975.63025	-387.92209	-384.21161	950.58093	-310.62262	-894.39453	815.41357	-517.41656	-343.96802	752.83289	-412.38074	-724.04541	812.36389	-452.91190				-581.05408	902.10498	-256.77643	-711.63715	419.39972	-266.39746	-496.82919	422.13077	-559.22327	-680.83832	128.93367	-101.48142	-517.88855	93.52882	-627.20844	
369	3.680	-541.49677	1406.02771	-644.09949	-597.20911	1581.94055	-403.38831	-681.31482	1512.35913	-527.94409	-460.65155	1459.31482	-527.15961	-788.20477	1296.81384	-395.09750	-426.14444	1293.38184	-391.81299	-615.36536	1172.86389	-519.95703	-604.00690	1351.57605	-349.50598	-889.28583	972.64423	-397.25244	-381.75723	949.69781	-320.60394	-891.44287	813.41180	-527.58118	-343.93872	750.85107	-421.46103	-723.44635	810.68402	-464.52393	-470.48328	822.83679	-489.05304	-581.29718	901.15778	-267.42752	-711.71057	417.21793	-275.76419	-497.12109	419.78668	-569.57672	-681.38391	130.60126	-104.73114	-519.12085	93.20914	-634.93176	
370	3.690	-540.63574	1406.22546	-653.68274	-597.12714	1581.43872	-412.79691	-680.30524	1511.97314	-536.83765	-460.01541	1458.88147	-536.52856	-787.37598	1295.42810	-405.89087	-425.13412	1292.39282	-401.88126	-613.92828	1171.99280	-530.34534	-603.00903	1350.96228	-359.59875	-888.18073	972.65991	-407.59506	-379.00870	948.99622	-330.67743	-888.32703	811.83008	-537.17078	-343.09470	749.70020	-430.58127	-722.69861	808.79700	-475.04761	-469.84274	822.81000	-499.45715	-583.11365	899.24817	-280.07397	-711.54828	415.69022	-286.91254	-496.57834	416.92438	-577.32959	-682.05426	133.21762	-108.32858	-521.59290	92.60979	-642.27039	
371	3.700	-539.66565	1406.95654	-662.82935	-595.28552	1580.50574	-421.54169	-679.38983	1512.13574	-545.98560	-458.55505	1459.45898	-546.77600	-786.47406	1294.61584	-416.56146	-424.33374	1291.26233	-411.02209	-612.41046	1171.11267	-540.29163	-602.93103	1350.90063	-369.66489	-885.97723	970.69678	-417.45493	-377.94464	947.45715	-341.23862	-885.28186	809.83197	-545.89142	-341.16483	748.48389	-440.93332	-721.60516	807.73431	-486.76846	-473.18268	821.40125	-511.69693	-583.16821	898.66382	-290.52179	-711.95465	414.63785	-298.82874	-495.14120	415.94293	-583.20880	-681.99139	136.20282	-112.43996	-521.55035	89.76385	-645.43677	
372	3.710	-538.76721	1407.57153	-672.89886	-594.62579	1580.17737	-430.55151	-678.26117	1511.76538	-554.91254	-456.70255	1459.96838	-556.33405	-785.70972	1294.29553	-427.96289	-423.01688	1291.02502	-420.90460	-610.90601	1171.27234	-551.08942	-601.28204	1350.00049	-379.19131	-883.94922	969.88165	-427.23636	-375.60864	947.40845	-351.27914	-882.30255	808.06775	-555.11151	-339.59329	748.44000	-452.28229	-720.57269	806.82147	-499.05289				-583.32141	897.75250	-300.30402	-712.10083	412.24420	-310.80499	-493.91525	416.17194	-589.26324	-681.66443	139.56532	-118.06205	-522.35065	87.24796	-647.78992	
373	3.720	-537.79199	1408.41553	-682.45288	-592.79272	1579.94617	-439.02783	-677.30396	1513.00513	-564.35278	-456.48666	1459.80554	-565.59821	-785.02362	1294.28687	-438.50119	-422.16983	1291.16809	-431.44934	-609.64160	1171.70837	-561.53418	-600.51410	1350.19910	-388.98505	-881.63977	968.99988	-437.68961	-372.52078	947.70245	-361.73697	-878.60114	806.34521	-564.20758	-337.63626	748.02380	-462.66190	-719.29590	806.17249	-511.07407				-585.19055	896.31238	-313.10837	-712.47278	411.22827	-324.51578	-495.76364	418.38422	-597.80713	-681.44397	142.95146	-123.01086	-522.18097	88.86214	-652.72241	
374	3.730	-537.00909	1409.38281	-692.27448	-592.10083	1580.16943	-448.49774	-676.07184	1513.39270	-573.60046	-454.26364	1461.03625	-574.46661	-783.94244	1294.41541	-448.88141	-421.23111	1291.02441	-440.52664	-608.13544	1172.04053	-571.45569	-598.99414	1349.36316	-398.41910	-878.77802	968.10553	-447.94919	-370.55466	947.25018	-372.23721	-874.68024	804.18878	-572.03192	-336.06674	749.16095	-474.43204	-718.02649	806.13251	-523.38971	-464.99014	823.06433	-543.63824	-584.28601	897.82104	-324.59900	-712.71094	410.22739	-338.52063	-497.74020	418.83466	-607.07434	-681.83325	146.87585	-128.49431	-524.75299	87.28441	-655.69147	
375	3.740	-535.92303	1411.19800	-701.82397	-590.36554	1581.51001	-457.43048	-674.77820	1514.55872	-582.80145	-455.00131	1461.94263	-583.55652	-783.02197	1294.29480	-458.95755	-420.22253	1291.62012	-449.63562	-606.55005	1172.83154	-581.99725	-598.35608	1350.36328	-408.45642	-876.06696	968.13965	-458.22443	-368.08569	947.49365	-382.37549	-870.69824	801.94312	-579.73242	-334.92749	750.06244	-486.33780	-716.46497	806.72388	-536.06299				-585.05542	897.43341	-335.08719	-713.73785	408.96964	-353.86459	-498.66534	418.46448	-616.69751	-682.14349	151.13136	-136.60503	-523.65210	87.33675	-657.66315	
376	3.750	-534.75720	1413.02075	-711.87341	-588.69269	1582.41016	-467.03232	-673.55798	1516.02991	-592.19409	-453.22241	1462.38782	-593.77722	-782.40356	1295.49048	-469.54941	-419.39383	1292.82800	-458.78574	-605.49677	1174.38806	-592.87274	-597.78094	1350.99731	-418.81479	-872.88336	968.09711	-468.56964	-365.74384	949.03033	-394.01373	-866.28796	800.20703	-587.90350	-332.46118	752.08496	-498.58438	-714.67572	807.76221	-548.69794				-584.36957	899.39374	-345.00833	-714.74420	407.82846	-370.14700	-497.29074	418.59286	-624.75885	-682.14380	155.88741	-145.93715	-523.40540	86.55968	-659.39227	
